<svg xmlns="http://www.w3.org/2000/svg" viewBox="0 0 55.23 49.25"><defs><style>.cls-1{fill:#0f344c;}</style></defs><g id="Layer_2" data-name="Layer 2"><g id="Layer_1-2" data-name="Layer 1"><path class="cls-1" d="M41.44,17.09V17a32.12,32.12,0,0,0-5.36-8.11,25.78,25.78,0,0,0-11-7.47A29.34,29.34,0,0,0,12.18.25,28.85,28.85,0,0,0,1.08,3.78a1.13,1.13,0,0,0-.58.84A1,1,0,0,0,1,5.53a1.44,1.44,0,0,0,1.43.06A26.93,26.93,0,0,1,12.83,2.78,22.76,22.76,0,0,1,24.09,4.63a24,24,0,0,1,8.9,7,33.15,33.15,0,0,1,5.1,8.1l0,.14c.21.5.38.9.76,1H39a.81.81,0,0,0,.56-.31,16.47,16.47,0,0,0,1.63-2.47A1.58,1.58,0,0,0,41.44,17.09Z"/><path class="cls-1" d="M55.17,41.7c-.08-.73-1.13-5.06-2-5.91C51,33.63,47.83,28,45.77,24.24c.6-1.35.92-2.09,1.5-3.42l.23-.54.67-1.54c.59-1.36,1.2-2.77,1.85-4.13A32,32,0,0,1,53,9.39a1.23,1.23,0,0,0-.12-1.58A1.25,1.25,0,0,0,52,7.44a1.34,1.34,0,0,0-.87.36,26.54,26.54,0,0,0-4,5.29c-1,1.73-2,3.55-3,5.57L43,20.8c-1.52,2.93-3.09,6-4.66,8.88-.91,1.67-1.92,3.39-3.07,5.25a52.84,52.84,0,0,1-3.45,4.93,26.26,26.26,0,0,1-9.08,7.52,1,1,0,0,0,.43,1.87.91.91,0,0,0,.23,0,20.45,20.45,0,0,0,6.07-2.71,29.48,29.48,0,0,0,5.06-4.25A48,48,0,0,0,42.1,31.74c.32-.57,1.17-2.2,1.47-2.78C46,33,49.2,39.68,53.71,43a1.48,1.48,0,0,0,.81.33.64.64,0,0,0,.34-.09C55.21,43,55.31,42.52,55.17,41.7Z"/><path class="cls-1" d="M26.79,10.85v0a.33.33,0,0,0-.27.2L16.31,32.31,5.84,8.87a.33.33,0,0,0-.31-.2H.37A.32.32,0,0,0,0,9v.56H0c0,1.78,0,26.5,0,28S4.22,43.3,4.45,43V17.82l10,21.6a.33.33,0,0,0,.31.2h3a.33.33,0,0,0,.3-.2L27,21.12V40.34c.23.29,4.48-5.31,4.48-6.8V17C31.51,15.22,27.44,10.68,26.79,10.85Z"/></g></g></svg>